<?xml version="1.0" encoding="iso-8859-1"?>
<!-- Generator: Adobe Illustrator 19.0.0, SVG Export Plug-In . SVG Version: 6.00 Build 0)  -->
<svg version="1.1" id="Capa_1" xmlns="http://www.w3.org/2000/svg" xmlns:xlink="http://www.w3.org/1999/xlink" x="0px" y="0px"
	 viewBox="0 0 511.999 511.999" style="enable-background:new 0 0 511.999 511.999;" xml:space="preserve">
<g>
	<g>
		<path d="M198.007,120.892H60.133c-4.2,0-7.604,3.405-7.604,7.604c0,4.199,3.404,7.604,7.604,7.604h137.874
			c4.2,0,7.604-3.405,7.604-7.604C205.611,124.297,202.208,120.892,198.007,120.892z"/>
	</g>
</g>
<g>
	<g>
		<path d="M198.007,157.829h-16.985c-4.2,0-7.604,3.405-7.604,7.604s3.404,7.604,7.604,7.604h16.985c4.2,0,7.604-3.405,7.604-7.604
			S202.207,157.829,198.007,157.829z"/>
	</g>
</g>
<g>
	<g>
		<path d="M155.673,157.829h-95.54c-4.2,0-7.604,3.405-7.604,7.604s3.404,7.604,7.604,7.604h95.54c4.2,0,7.604-3.405,7.604-7.604
			S159.874,157.829,155.673,157.829z"/>
	</g>
</g>
<g>
	<g>
		<path d="M198.007,231.702H60.133c-4.2,0-7.604,3.405-7.604,7.604c0,4.199,3.404,7.604,7.604,7.604h137.874
			c4.2,0,7.604-3.405,7.604-7.604C205.611,235.107,202.208,231.702,198.007,231.702z"/>
	</g>
</g>
<g>
	<g>
		<path d="M198.007,305.575H60.133c-4.2,0-7.604,3.405-7.604,7.604c0,4.199,3.404,7.604,7.604,7.604h137.874
			c4.2,0,7.604-3.405,7.604-7.604C205.611,308.98,202.208,305.575,198.007,305.575z"/>
	</g>
</g>
<g>
	<g>
		<path d="M198.007,194.765H60.133c-4.2,0-7.604,3.405-7.604,7.604c0,4.199,3.404,7.604,7.604,7.604h137.874
			c4.2,0,7.604-3.405,7.604-7.604C205.611,198.17,202.208,194.765,198.007,194.765z"/>
	</g>
</g>
<g>
	<g>
		<path d="M198.007,268.638h-79.335c-4.2,0-7.604,3.405-7.604,7.604c0,4.199,3.404,7.604,7.604,7.604h79.335
			c4.2,0,7.604-3.405,7.604-7.604C205.611,272.043,202.207,268.638,198.007,268.638z"/>
	</g>
</g>
<g>
	<g>
		<path d="M93.324,268.638H60.133c-4.2,0-7.604,3.405-7.604,7.604c0,4.199,3.404,7.604,7.604,7.604h33.191
			c4.2,0,7.604-3.405,7.604-7.604C100.928,272.043,97.524,268.638,93.324,268.638z"/>
	</g>
</g>
<g>
	<g>
		<path d="M198.007,342.511H60.133c-4.2,0-7.604,3.405-7.604,7.604c0,4.199,3.404,7.604,7.604,7.604h137.874
			c4.2,0,7.604-3.405,7.604-7.604C205.611,345.916,202.208,342.511,198.007,342.511z"/>
	</g>
</g>
<g>
	<g>
		<path d="M479.035,55.237H309.783c-3.615,0-7.246,0.318-10.796,0.947c-18.819,3.345-34.313,15.025-43.003,30.844
			c-10.465-18.935-30.635-31.791-53.756-31.791H32.965C14.788,55.237,0,70.025,0,88.201v33.962v267.672v33.962
			c0,18.177,14.788,32.965,32.965,32.965h358.923c4.2,0,7.604-3.405,7.604-7.604s-3.404-7.604-7.604-7.604H272.643
			c6.957-9.369,17.351-15.976,29.032-18.047c2.628-0.477,5.355-0.719,8.108-0.719h169.252c6.535,0,12.627-1.919,17.757-5.211v6.22
			c0,9.791-7.965,17.757-17.757,17.757h-61.799c-4.2,0-7.604,3.405-7.604,7.604s3.404,7.604,7.604,7.604h61.799
			c18.177,0,32.965-14.788,32.965-32.965v-33.962V122.164V88.201C512,70.025,497.212,55.237,479.035,55.237z M32.965,441.554
			c-9.792,0-17.757-7.966-17.757-17.757v-6.22c5.129,3.292,11.221,5.211,17.757,5.211h169.263c15.005,0,28.641,7.1,37.196,18.766
			H32.965z M248.401,428.434c-11.417-13.062-28.046-20.854-46.173-20.854H32.965c-9.791,0-17.757-7.961-17.757-17.746V122.164
			V88.201c0-9.791,7.965-17.757,17.757-17.757h169.263c25.46,0,46.173,20.713,46.173,46.173V428.434z M496.791,122.165v267.672
			c0.001,9.784-7.964,17.745-17.756,17.745H309.783c-3.66,0-7.302,0.324-10.793,0.957c-13.814,2.447-26.284,9.685-35.382,20.039
			V116.619c0-1.376,0.062-2.738,0.179-4.086c0.005-0.05,0.009-0.1,0.013-0.15c1.869-20.559,17.206-37.556,37.841-41.225
			c2.672-0.473,5.41-0.713,8.139-0.713h169.252c9.791,0,17.757,7.966,17.757,17.757V122.165z"/>
	</g>
</g>
<g>
	<g>
		<path d="M458.437,120.892H320.563c-4.2,0-7.604,3.405-7.604,7.604v184.682c0,4.199,3.404,7.604,7.604,7.604h137.874
			c4.2,0,7.604-3.405,7.604-7.604V128.496C466.041,124.297,462.637,120.892,458.437,120.892z M328.166,136.1h45.971
			c1.011,3.372,1.533,6.876,1.533,10.473c0,20.125-16.373,36.499-36.499,36.499c-3.79,0-7.472-0.577-11.004-1.695V136.1z
			 M450.833,305.576H328.167v-0.001v-25.97l42.433-50.808l48.864,48.865c2.971,2.97,7.784,2.97,10.754,0
			c2.97-2.97,2.97-7.784,0-10.753l-31.539-31.539l41.892-49.274l10.262,10.262V305.576z M450.833,174.85l-5.338-5.338
			c-1.502-1.502-3.557-2.306-5.684-2.221c-2.122,0.086-4.111,1.054-5.486,2.673l-46.435,54.618l-12.419-12.419
			c-1.51-1.51-3.572-2.315-5.718-2.219c-2.133,0.095-4.126,1.084-5.496,2.722l-36.091,43.215v-58.771
			c3.583,0.777,7.258,1.173,11.004,1.173c28.511,0,51.707-23.195,51.707-51.707c0-3.559-0.363-7.055-1.066-10.473h61.021V174.85z"/>
	</g>
</g>
<g>
	<g>
		<path d="M458.437,342.511H320.563c-4.2,0-7.604,3.405-7.604,7.604c0,4.199,3.404,7.604,7.604,7.604h137.874
			c4.2,0,7.604-3.405,7.604-7.604C466.041,345.916,462.637,342.511,458.437,342.511z"/>
	</g>
</g>
<g>
</g>
<g>
</g>
<g>
</g>
<g>
</g>
<g>
</g>
<g>
</g>
<g>
</g>
<g>
</g>
<g>
</g>
<g>
</g>
<g>
</g>
<g>
</g>
<g>
</g>
<g>
</g>
<g>
</g>
</svg>
