<svg id="Capa_1" enable-background="new 0 0 510 510" height="512" viewBox="0 0 510 510" width="512" xmlns="http://www.w3.org/2000/svg"><path d="m121.285 164.705h136.647c8.284 0 15-6.716 15-15s-6.716-15-15-15h-136.647c-8.284 0-15 6.716-15 15s6.715 15 15 15z"/><path d="m121.285 226.809h136.647c8.284 0 15-6.716 15-15s-6.716-15-15-15h-136.647c-8.284 0-15 6.716-15 15s6.715 15 15 15z"/><path d="m495 101.078c8.284 0 15-6.716 15-15v-70.887c0-8.284-6.716-15-15-15h-480c-8.284 0-15 6.716-15 15v70.887c0 8.284 6.716 15 15 15h11v304.732c0 8.284 6.716 15 15 15h104.633c5.807 18.286 22.987 32.039 43.857 32.039h80.49c4.294 0 8.441-.643 12.35-1.836v43.796c0 8.284 6.716 15 15 15h.002 197.667c8.284 0 15-6.716 15-15v-131.94c0-21.46-10.202-40.572-26-52.775v-209.016zm-465-70.887h450v40.887h-450zm450 449.618h-39.038v-89.758c0-8.284-6.716-15-15-15s-15 6.716-15 15v89.758h-98.63v-89.758c0-8.284-6.716-15-15-15s-15 6.716-15 15v20.399c0 .016-.002.032-.002.048 0 6.81-5.54 12.35-12.35 12.35h-80.49c-8.874 0-16.02-7.182-16.02-16.02 0-8.833 7.187-16.02 16.02-16.02h48.5c8.284 0 15-6.716 15-15v-12.94c0-20.22 16.455-36.67 36.68-36.67h153.66c20.22 0 36.67 16.45 36.67 36.67zm-147.612-212.875v-25.866c0-16.134 13.125-29.259 29.259-29.259s29.259 13.125 29.259 29.259v25.866c0 16.134-13.125 29.259-29.259 29.259s-29.259-13.125-29.259-29.259zm121.612 30.129c-3.476-.562-7.038-.865-10.67-.865h-30.185c4.929-8.64 7.762-18.625 7.762-29.264v-25.866c0-32.676-26.583-59.259-59.259-59.259s-59.259 26.583-59.259 59.259v25.866c0 10.639 2.833 20.624 7.762 29.264h-20.48c-36.079 0-65.557 28.797-66.649 64.61h-33.532c-4.855 0-9.535.761-13.932 2.161l-52.29-99.157c-3.864-7.327-12.938-10.135-20.265-6.271-7.328 3.864-10.135 12.937-6.271 20.265l54.537 103.419c-1.995 2.969-3.652 6.182-4.919 9.584h-90.35v-289.731h398z"/></svg>