<svg xmlns="http://www.w3.org/2000/svg" xmlns:xlink="http://www.w3.org/1999/xlink" version="1.1" x="0px" y="0px" viewBox="0 0 100 125"
     enable-background="new 0 0 100 100" xml:space="preserve"><g><path
    d="M84.159,4.036H29v91h68V16.927L84.159,4.036z M84,8.127l9.87,9.909H84V8.127z M32,92.036v-85h49v14h13v71H32z"/>
    <rect x="46" y="22.035" width="34" height="3"/><rect x="36" y="29.035" width="21" height="3"/><rect x="36" y="36.035" width="44" height="3"/>
    <rect x="36" y="43.035" width="51" height="3"/><rect x="36" y="50.035" width="26" height="3"/><rect x="36" y="57.035" width="44" height="3"/>
    <rect x="36" y="77.035" width="26" height="3"/>
    <path d="M83,70.536c-4.687,0-8.5,3.813-8.5,8.5c0,4.687,3.813,8.5,8.5,8.5s8.5-3.813,8.5-8.5C91.5,74.349,87.687,70.536,83,70.536z    M83,84.536c-3.033,0-5.5-2.467-5.5-5.5s2.467-5.5,5.5-5.5s5.5,2.467,5.5,5.5S86.033,84.536,83,84.536z"/><path d="M83,75.202c-2.113,0-3.833,1.72-3.833,3.834c0,2.113,1.72,3.833,3.833,3.833s3.833-1.72,3.833-3.833   C86.833,76.922,85.113,75.202,83,75.202z M83,79.869c-0.459,0-0.833-0.374-0.833-0.833c0-0.46,0.374-0.834,0.833-0.834   s0.833,0.374,0.833,0.834C83.833,79.495,83.459,79.869,83,79.869z"/><path d="M22,18.036H12c-2.206,0-4,1.794-4,4v1H3v22h3l0,0h1v-6H6v-13h2v24c0,1.474,0.811,2.75,2,3.443v33.574l7,8.91l7-8.91V53.479   c1.189-0.693,2-1.97,2-3.443v-28C26,19.83,24.206,18.036,22,18.036z M12,21.036h10c0.542,0,1,0.458,1,1v0.999H11v-0.999   C11,21.494,11.458,21.036,12,21.036z M22,51.036H12c-0.542,0-1-0.459-1-1V26.035h12v24.001C23,50.577,22.542,51.036,22,51.036z    M21,82.035h-8V54.036h8V82.035z M17,91.108l-4-5.092v-0.981h8v0.981L17,91.108z"/></g>
    <!--<text x="0" y="115" fill="#000000" font-size="5px" font-weight="bold" font-family="'Helvetica Neue', Helvetica, Arial-Unicode, Arial, Sans-serif">Created by Nikita Kozin</text>-->
    <!--<text x="0" y="120" fill="#000000" font-size="5px" font-weight="bold" font-family="'Helvetica Neue', Helvetica, Arial-Unicode, Arial, Sans-serif">from the Noun Project</text>-->
</svg>
